<mxfile host="65bd71144e">
    <diagram name="getData" id="631gRkdfWmppmMCItgKx">
        <mxGraphModel dx="1222" dy="971" grid="1" gridSize="10" guides="1" tooltips="1" connect="1" arrows="1" fold="1" page="1" pageScale="1" pageWidth="1100" pageHeight="850" math="0" shadow="0">
            <root>
                <mxCell id="tUQsV_qrrNZ-Z5bhm3eA-0"/>
                <mxCell id="tUQsV_qrrNZ-Z5bhm3eA-1" value="Main" style="" parent="tUQsV_qrrNZ-Z5bhm3eA-0"/>
                <mxCell id="tUQsV_qrrNZ-Z5bhm3eA-2" style="edgeStyle=none;html=1;exitX=0.5;exitY=1;exitDx=0;exitDy=0;endArrow=block;endFill=1;startArrow=none;" parent="tUQsV_qrrNZ-Z5bhm3eA-1" source="tUQsV_qrrNZ-Z5bhm3eA-34" edge="1">
                    <mxGeometry relative="1" as="geometry">
                        <mxPoint x="280" y="600" as="targetPoint"/>
                        <mxPoint x="310" y="60" as="sourcePoint"/>
                    </mxGeometry>
                </mxCell>
                <mxCell id="tUQsV_qrrNZ-Z5bhm3eA-5" value="KaiztenDataManager" style="rounded=0;whiteSpace=wrap;html=1;" parent="tUQsV_qrrNZ-Z5bhm3eA-1" vertex="1">
                    <mxGeometry x="200" width="160" height="40" as="geometry"/>
                </mxCell>
                <mxCell id="tUQsV_qrrNZ-Z5bhm3eA-6" style="edgeStyle=none;html=1;exitX=0.5;exitY=1;exitDx=0;exitDy=0;endArrow=block;endFill=1;" parent="tUQsV_qrrNZ-Z5bhm3eA-1" source="tUQsV_qrrNZ-Z5bhm3eA-7" edge="1">
                    <mxGeometry relative="1" as="geometry">
                        <mxPoint x="480" y="600" as="targetPoint"/>
                    </mxGeometry>
                </mxCell>
                <mxCell id="tUQsV_qrrNZ-Z5bhm3eA-7" value="Websockets" style="rounded=0;whiteSpace=wrap;html=1;" parent="tUQsV_qrrNZ-Z5bhm3eA-1" vertex="1">
                    <mxGeometry x="400" width="160" height="40" as="geometry"/>
                </mxCell>
                <mxCell id="tUQsV_qrrNZ-Z5bhm3eA-8" style="edgeStyle=none;html=1;exitX=0.5;exitY=1;exitDx=0;exitDy=0;endArrow=block;endFill=1;" parent="tUQsV_qrrNZ-Z5bhm3eA-1" source="tUQsV_qrrNZ-Z5bhm3eA-9" edge="1">
                    <mxGeometry relative="1" as="geometry">
                        <mxPoint x="1080" y="600" as="targetPoint"/>
                    </mxGeometry>
                </mxCell>
                <mxCell id="tUQsV_qrrNZ-Z5bhm3eA-9" value="App" style="rounded=0;whiteSpace=wrap;html=1;" parent="tUQsV_qrrNZ-Z5bhm3eA-1" vertex="1">
                    <mxGeometry x="1000" width="160" height="40" as="geometry"/>
                </mxCell>
                <mxCell id="tUQsV_qrrNZ-Z5bhm3eA-14" value="setUp" style="text;html=1;strokeColor=none;fillColor=none;align=center;verticalAlign=middle;whiteSpace=wrap;rounded=0;" parent="tUQsV_qrrNZ-Z5bhm3eA-1" vertex="1">
                    <mxGeometry x="280" y="130" width="200" height="20" as="geometry"/>
                </mxCell>
                <mxCell id="tUQsV_qrrNZ-Z5bhm3eA-15" value="" style="endArrow=block;html=1;endFill=1;" parent="tUQsV_qrrNZ-Z5bhm3eA-1" edge="1">
                    <mxGeometry width="50" height="50" relative="1" as="geometry">
                        <mxPoint x="280" y="160" as="sourcePoint"/>
                        <mxPoint x="480" y="160" as="targetPoint"/>
                    </mxGeometry>
                </mxCell>
                <mxCell id="tUQsV_qrrNZ-Z5bhm3eA-16" value="" style="endArrow=block;html=1;endFill=1;" parent="tUQsV_qrrNZ-Z5bhm3eA-1" edge="1">
                    <mxGeometry width="50" height="50" relative="1" as="geometry">
                        <mxPoint x="280" y="200" as="sourcePoint"/>
                        <mxPoint x="680" y="200" as="targetPoint"/>
                    </mxGeometry>
                </mxCell>
                <mxCell id="tUQsV_qrrNZ-Z5bhm3eA-17" value="" style="endArrow=block;html=1;endFill=1;" parent="tUQsV_qrrNZ-Z5bhm3eA-1" edge="1">
                    <mxGeometry width="50" height="50" relative="1" as="geometry">
                        <mxPoint x="280" y="320" as="sourcePoint"/>
                        <mxPoint x="480" y="320" as="targetPoint"/>
                    </mxGeometry>
                </mxCell>
                <mxCell id="tUQsV_qrrNZ-Z5bhm3eA-19" value="setUp" style="text;html=1;strokeColor=none;fillColor=none;align=center;verticalAlign=middle;whiteSpace=wrap;rounded=0;" parent="tUQsV_qrrNZ-Z5bhm3eA-1" vertex="1">
                    <mxGeometry x="280" y="170" width="400" height="20" as="geometry"/>
                </mxCell>
                <mxCell id="tUQsV_qrrNZ-Z5bhm3eA-20" value="initialize" style="text;html=1;strokeColor=none;fillColor=none;align=center;verticalAlign=middle;whiteSpace=wrap;rounded=0;" parent="tUQsV_qrrNZ-Z5bhm3eA-1" vertex="1">
                    <mxGeometry x="280" y="290" width="200" height="20" as="geometry"/>
                </mxCell>
                <mxCell id="tUQsV_qrrNZ-Z5bhm3eA-24" value="connect" style="text;html=1;strokeColor=none;fillColor=none;align=center;verticalAlign=middle;whiteSpace=wrap;rounded=0;" parent="tUQsV_qrrNZ-Z5bhm3eA-1" vertex="1">
                    <mxGeometry x="280" y="490" width="200" height="20" as="geometry"/>
                </mxCell>
                <mxCell id="tUQsV_qrrNZ-Z5bhm3eA-25" value="" style="endArrow=block;html=1;endFill=1;exitX=1;exitY=0.5;exitDx=0;exitDy=0;" parent="tUQsV_qrrNZ-Z5bhm3eA-1" source="tUQsV_qrrNZ-Z5bhm3eA-34" edge="1">
                    <mxGeometry width="50" height="50" relative="1" as="geometry">
                        <mxPoint x="260" y="400" as="sourcePoint"/>
                        <mxPoint x="480" y="520" as="targetPoint"/>
                    </mxGeometry>
                </mxCell>
                <mxCell id="tUQsV_qrrNZ-Z5bhm3eA-28" style="edgeStyle=none;html=1;exitX=0.5;exitY=1;exitDx=0;exitDy=0;endArrow=block;endFill=1;" parent="tUQsV_qrrNZ-Z5bhm3eA-1" source="tUQsV_qrrNZ-Z5bhm3eA-29" edge="1">
                    <mxGeometry relative="1" as="geometry">
                        <mxPoint x="680" y="600" as="targetPoint"/>
                    </mxGeometry>
                </mxCell>
                <mxCell id="tUQsV_qrrNZ-Z5bhm3eA-29" value="KaiztenMemory" style="rounded=0;whiteSpace=wrap;html=1;" parent="tUQsV_qrrNZ-Z5bhm3eA-1" vertex="1">
                    <mxGeometry x="600" width="160" height="40" as="geometry"/>
                </mxCell>
                <mxCell id="tUQsV_qrrNZ-Z5bhm3eA-30" style="edgeStyle=none;html=1;exitX=0.5;exitY=1;exitDx=0;exitDy=0;endArrow=block;endFill=1;" parent="tUQsV_qrrNZ-Z5bhm3eA-1" source="tUQsV_qrrNZ-Z5bhm3eA-31" edge="1">
                    <mxGeometry relative="1" as="geometry">
                        <mxPoint x="880" y="600" as="targetPoint"/>
                    </mxGeometry>
                </mxCell>
                <mxCell id="tUQsV_qrrNZ-Z5bhm3eA-31" value="KaiztenGsap" style="rounded=0;whiteSpace=wrap;html=1;" parent="tUQsV_qrrNZ-Z5bhm3eA-1" vertex="1">
                    <mxGeometry x="800" width="160" height="40" as="geometry"/>
                </mxCell>
                <mxCell id="tUQsV_qrrNZ-Z5bhm3eA-32" value="" style="endArrow=block;html=1;endFill=1;" parent="tUQsV_qrrNZ-Z5bhm3eA-1" edge="1">
                    <mxGeometry width="50" height="50" relative="1" as="geometry">
                        <mxPoint x="280" y="240" as="sourcePoint"/>
                        <mxPoint x="879.6" y="240.24" as="targetPoint"/>
                    </mxGeometry>
                </mxCell>
                <mxCell id="tUQsV_qrrNZ-Z5bhm3eA-33" value="" style="edgeStyle=none;html=1;exitX=0.5;exitY=1;exitDx=0;exitDy=0;endArrow=none;endFill=1;" parent="tUQsV_qrrNZ-Z5bhm3eA-1" source="tUQsV_qrrNZ-Z5bhm3eA-5" target="tUQsV_qrrNZ-Z5bhm3eA-34" edge="1">
                    <mxGeometry relative="1" as="geometry">
                        <mxPoint x="280" y="720" as="targetPoint"/>
                        <mxPoint x="280" y="40" as="sourcePoint"/>
                    </mxGeometry>
                </mxCell>
                <mxCell id="tUQsV_qrrNZ-Z5bhm3eA-34" value="" style="rounded=0;whiteSpace=wrap;html=1;" parent="tUQsV_qrrNZ-Z5bhm3eA-1" vertex="1">
                    <mxGeometry x="270" y="480" width="20" height="80" as="geometry"/>
                </mxCell>
                <mxCell id="tUQsV_qrrNZ-Z5bhm3eA-35" value="getDataInRange" style="text;html=1;strokeColor=none;fillColor=none;align=center;verticalAlign=middle;whiteSpace=wrap;rounded=0;" parent="tUQsV_qrrNZ-Z5bhm3eA-1" vertex="1">
                    <mxGeometry x="280" y="210" width="600" height="20" as="geometry"/>
                </mxCell>
                <mxCell id="tUQsV_qrrNZ-Z5bhm3eA-36" value="" style="endArrow=block;html=1;endFill=1;" parent="tUQsV_qrrNZ-Z5bhm3eA-1" edge="1">
                    <mxGeometry width="50" height="50" relative="1" as="geometry">
                        <mxPoint x="280" y="280" as="sourcePoint"/>
                        <mxPoint x="1080" y="280" as="targetPoint"/>
                    </mxGeometry>
                </mxCell>
                <mxCell id="tUQsV_qrrNZ-Z5bhm3eA-37" value="setUp" style="text;html=1;strokeColor=none;fillColor=none;align=center;verticalAlign=middle;whiteSpace=wrap;rounded=0;" parent="tUQsV_qrrNZ-Z5bhm3eA-1" vertex="1">
                    <mxGeometry x="280" y="250" width="800" height="20" as="geometry"/>
                </mxCell>
                <mxCell id="tUQsV_qrrNZ-Z5bhm3eA-38" value="" style="endArrow=block;html=1;endFill=1;" parent="tUQsV_qrrNZ-Z5bhm3eA-1" edge="1">
                    <mxGeometry width="50" height="50" relative="1" as="geometry">
                        <mxPoint x="280" y="360" as="sourcePoint"/>
                        <mxPoint x="680" y="360" as="targetPoint"/>
                    </mxGeometry>
                </mxCell>
                <mxCell id="tUQsV_qrrNZ-Z5bhm3eA-39" value="initialize" style="text;html=1;strokeColor=none;fillColor=none;align=center;verticalAlign=middle;whiteSpace=wrap;rounded=0;" parent="tUQsV_qrrNZ-Z5bhm3eA-1" vertex="1">
                    <mxGeometry x="280" y="330" width="400" height="20" as="geometry"/>
                </mxCell>
                <mxCell id="tUQsV_qrrNZ-Z5bhm3eA-40" value="" style="endArrow=block;html=1;endFill=1;" parent="tUQsV_qrrNZ-Z5bhm3eA-1" edge="1">
                    <mxGeometry width="50" height="50" relative="1" as="geometry">
                        <mxPoint x="280" y="400" as="sourcePoint"/>
                        <mxPoint x="879.5999999999999" y="400.24" as="targetPoint"/>
                    </mxGeometry>
                </mxCell>
                <mxCell id="tUQsV_qrrNZ-Z5bhm3eA-41" value="initialize" style="text;html=1;strokeColor=none;fillColor=none;align=center;verticalAlign=middle;whiteSpace=wrap;rounded=0;" parent="tUQsV_qrrNZ-Z5bhm3eA-1" vertex="1">
                    <mxGeometry x="280" y="370" width="600" height="20" as="geometry"/>
                </mxCell>
                <mxCell id="tUQsV_qrrNZ-Z5bhm3eA-42" value="" style="endArrow=block;html=1;endFill=1;" parent="tUQsV_qrrNZ-Z5bhm3eA-1" edge="1">
                    <mxGeometry width="50" height="50" relative="1" as="geometry">
                        <mxPoint x="280" y="440" as="sourcePoint"/>
                        <mxPoint x="1080" y="440" as="targetPoint"/>
                    </mxGeometry>
                </mxCell>
                <mxCell id="tUQsV_qrrNZ-Z5bhm3eA-43" value="initialize" style="text;html=1;strokeColor=none;fillColor=none;align=center;verticalAlign=middle;whiteSpace=wrap;rounded=0;" parent="tUQsV_qrrNZ-Z5bhm3eA-1" vertex="1">
                    <mxGeometry x="280" y="410" width="800" height="20" as="geometry"/>
                </mxCell>
                <mxCell id="tUQsV_qrrNZ-Z5bhm3eA-44" value="" style="rounded=0;whiteSpace=wrap;html=1;" parent="tUQsV_qrrNZ-Z5bhm3eA-1" vertex="1">
                    <mxGeometry x="270" y="140" width="20" height="300" as="geometry"/>
                </mxCell>
            </root>
        </mxGraphModel>
    </diagram>
</mxfile>